<svg width="110" height="28" viewBox="0 0 110 28" fill="none" xmlns="http://www.w3.org/2000/svg">
<path d="M44.4893 13.5085C44.4893 14.3338 44.3838 15.0902 44.173 15.7777C43.9617 16.4656 43.6591 17.0569 43.2646 17.5518C42.8698 18.047 42.3768 18.4322 41.7848 18.7069C41.193 18.9819 40.5225 19.1194 39.7744 19.1194C39.2708 19.1194 38.8082 19.0576 38.3864 18.9338C37.9643 18.8101 37.6174 18.6726 37.3453 18.5213V21.1197C37.3453 21.9975 36.6412 22.7092 35.7727 22.7092H34.8756V8.45427C35.3789 8.31677 35.9982 8.186 36.733 8.06228C37.4677 7.93857 38.2434 7.87671 39.0596 7.87671C39.8759 7.87671 40.6585 8.00749 41.3251 8.2687C41.9916 8.53025 42.5601 8.9051 43.0294 9.3929C43.4987 9.88138 43.8593 10.4727 44.1111 11.167C44.3629 11.8615 44.4886 12.6418 44.4886 13.5085H44.4893ZM41.9584 13.5498C41.9584 12.4357 41.7099 11.5694 41.2133 10.9504C40.7164 10.3315 39.9171 10.0222 38.8152 10.0222C38.5836 10.0222 38.3422 10.0327 38.0907 10.0532C37.8389 10.0737 37.5908 10.1187 37.3456 10.1873V16.3556C37.5632 16.5073 37.8526 16.6481 38.2131 16.7786C38.5733 16.9093 38.9582 16.9745 39.3663 16.9745C40.2644 16.9745 40.9206 16.6653 41.3361 16.0463C41.7508 15.4274 41.9587 14.5954 41.9587 13.5502L41.9584 13.5498Z" fill="#151E57"/>
<path d="M50.5905 7.87805C51.4089 7.87805 52.0972 7.98104 52.6565 8.18669C53.2155 8.39268 53.6619 8.68085 53.9962 9.05122C54.3302 9.42193 54.5689 9.87147 54.7122 10.3995C54.8552 10.9279 54.9268 11.5079 54.9268 12.139V18.6647C54.5448 18.7469 53.9689 18.8469 53.1985 18.9633C52.4279 19.0797 51.5585 19.1384 50.5905 19.1384C49.9495 19.1384 49.3632 19.0767 48.8316 18.9532C48.2999 18.8298 47.8462 18.6308 47.4712 18.3561C47.0959 18.0816 46.8029 17.725 46.5916 17.2856C46.3799 16.8464 46.2746 16.3046 46.2746 15.6592C46.2746 15.0137 46.3939 14.5202 46.6326 14.0945C46.8709 13.6694 47.1949 13.3225 47.6042 13.0548C48.0132 12.7871 48.4869 12.5952 49.0259 12.4785C49.5645 12.3621 50.1269 12.3034 50.7132 12.3034C50.9859 12.3034 51.2722 12.3208 51.5722 12.3547C51.8719 12.3892 52.1925 12.4473 52.5335 12.5298V12.1182C52.5335 11.83 52.4992 11.5556 52.4312 11.2946C52.3629 11.0339 52.2435 10.8041 52.0732 10.6048C51.9025 10.4059 51.6775 10.2516 51.3982 10.1415C51.1185 10.0318 50.7672 9.97681 50.3449 9.97681C49.7722 9.97681 49.2469 10.0181 48.7699 10.1003C48.7652 10.1009 48.7602 10.1019 48.7556 10.1026C48.1169 10.2137 47.5112 9.77854 47.4132 9.13375L47.2972 8.37087C47.6109 8.26117 48.0676 8.15147 48.6676 8.04143C49.2676 7.93173 49.9082 7.87671 50.5902 7.87671L50.5905 7.87805ZM50.7952 17.1624C51.5589 17.1624 52.1382 17.1212 52.5339 17.039V14.2803C52.3975 14.2391 52.1995 14.1981 51.9405 14.1569C51.6812 14.1156 51.3949 14.0951 51.0815 14.0951C50.8085 14.0951 50.5325 14.1156 50.2532 14.1569C49.9735 14.1981 49.7215 14.2736 49.4962 14.3833C49.2712 14.4934 49.0902 14.6477 48.9542 14.8466C48.8179 15.0456 48.7496 15.2962 48.7496 15.5981C48.7496 16.1882 48.9335 16.5965 49.3019 16.8229C49.6702 17.0494 50.1675 17.1628 50.7952 17.1628V17.1624Z" fill="#151E57"/>
<path d="M66.7377 17.7582C66.7377 19.4699 66.2963 20.7233 65.4134 21.5178C64.5305 22.3119 63.1787 22.7093 61.3576 22.7093C60.6902 22.7093 60.0404 22.6544 59.408 22.5449C58.7753 22.4351 58.2016 22.2914 57.6878 22.1133L57.8608 21.3152C58.0062 20.6443 58.6808 20.2195 59.3597 20.3738C59.444 20.3929 59.5297 20.4113 59.6167 20.4287C60.1658 20.5382 60.7598 20.5931 61.3994 20.5931C62.4141 20.5931 63.1369 20.3875 63.5681 19.9768C63.9987 19.566 64.2145 18.9564 64.2145 18.1485V17.7378C63.9644 17.861 63.6337 17.9842 63.2239 18.1077C62.8137 18.2309 62.3444 18.2925 61.8163 18.2925C61.1211 18.2925 60.4849 18.183 59.9082 17.9637C59.3312 17.7448 58.8374 17.4231 58.4276 16.9982C58.0174 16.5737 57.6977 16.0431 57.4683 15.406C57.2389 14.7692 57.124 14.0331 57.124 13.1974C57.124 12.4167 57.2457 11.6976 57.489 11.0405C57.732 10.3829 58.0868 9.82151 58.5527 9.35583C59.0182 8.89049 59.5847 8.52725 60.2521 8.26713C60.9195 8.007 61.677 7.87677 62.5252 7.87677C63.3734 7.87677 64.1238 7.93837 64.8608 8.06157C65.5976 8.18477 66.2232 8.315 66.7377 8.45192V17.7582ZM59.7101 13.1974C59.7101 14.2523 59.9429 15.0227 60.4088 15.5088C60.8743 15.9952 61.4755 16.2379 62.2126 16.2379C62.6156 16.2379 62.9945 16.1834 63.349 16.0736C63.7034 15.9641 63.9919 15.8342 64.2145 15.6832V10.1161C64.0337 10.0749 63.8111 10.0374 63.5471 10.003C63.2827 9.96915 62.9493 9.95174 62.5463 9.95174C61.6288 9.95174 60.9267 10.2497 60.4401 10.8453C59.9531 11.4412 59.7101 12.2252 59.7101 13.1974Z" fill="#151E57"/>
<path d="M73.2517 7.87805C74.07 7.87805 74.7584 7.98104 75.3177 8.18669C75.8767 8.39268 76.323 8.68085 76.6573 9.05122C76.9913 9.42193 77.23 9.87147 77.3733 10.3995C77.5163 10.9279 77.588 11.5079 77.588 12.139V18.6647C77.2063 18.7469 76.63 18.8469 75.8597 18.9633C75.089 19.0797 74.2197 19.1384 73.2517 19.1384C72.6107 19.1384 72.0244 19.0767 71.4927 18.9532C70.961 18.8298 70.5074 18.6308 70.1324 18.3561C69.7571 18.0816 69.464 17.725 69.2527 17.2856C69.0411 16.8464 68.9357 16.3046 68.9357 15.6592C68.9357 15.0137 69.0551 14.5202 69.2937 14.0945C69.532 13.6694 69.8564 13.3225 70.2654 13.0548C70.6744 12.7871 71.148 12.5952 71.687 12.4785C72.2254 12.3621 72.788 12.3034 73.3744 12.3034C73.647 12.3034 73.9334 12.3208 74.2334 12.3547C74.533 12.3892 74.8537 12.4473 75.1947 12.5298V12.1182C75.1947 11.83 75.1604 11.5556 75.0924 11.2946C75.024 11.0339 74.9047 10.8041 74.7344 10.6048C74.5637 10.4059 74.3387 10.2516 74.0594 10.1415C73.7797 10.0318 73.4284 9.97681 73.006 9.97681C72.4334 9.97681 71.9084 10.0181 71.431 10.1003C71.4264 10.1009 71.4214 10.1019 71.4167 10.1026C70.778 10.2137 70.1724 9.77854 70.0744 9.13375L69.9584 8.37087C70.272 8.26117 70.7287 8.15147 71.3287 8.04143C71.9284 7.93173 72.5694 7.87671 73.2514 7.87671L73.2517 7.87805ZM73.4564 17.1624C74.22 17.1624 74.7994 17.1212 75.195 17.039V14.2803C75.0587 14.2391 74.8607 14.1981 74.602 14.1569C74.3427 14.1156 74.0564 14.0951 73.743 14.0951C73.47 14.0951 73.194 14.1156 72.9147 14.1569C72.635 14.1981 72.3827 14.2736 72.1577 14.3833C71.9327 14.4934 71.7517 14.6477 71.6157 14.8466C71.4794 15.0456 71.411 15.2962 71.411 15.5981C71.411 16.1882 71.595 16.5965 71.9634 16.8229C72.3314 17.0494 72.829 17.1628 73.4567 17.1628L73.4564 17.1624Z" fill="#151E57"/>
<path d="M86.7763 10.315C86.5739 10.2474 85.1642 9.9898 84.6923 9.9898C84.4222 9.9898 84.136 10.0171 83.8323 10.0711C83.5289 10.1254 83.3163 10.1726 83.1949 10.2132V18.7264H80.7465V8.60806C81.2184 8.43214 81.809 8.26629 82.5169 8.1102C83.2252 7.95476 84.011 7.87671 84.8743 7.87671C85.0362 7.87671 85.2249 7.88679 85.4408 7.90728C85.6565 7.92744 85.8725 7.95476 86.0885 7.98857C86.3041 8.02239 86.5135 8.06304 86.7157 8.11052C86.9181 8.158 87.08 8.2019 87.2014 8.24255L86.7763 10.315Z" fill="#151E57"/>
<path d="M105.595 7.87811C106.426 7.87811 107.125 7.9811 107.694 8.18675C108.262 8.39274 108.715 8.68091 109.055 9.05128C109.394 9.42199 109.636 9.87153 109.782 10.3996C109.927 10.928 110 11.508 110 12.139V18.6648C109.612 18.747 109.027 18.8469 108.244 18.9633C107.461 19.0798 106.578 19.1385 105.595 19.1385C104.944 19.1385 104.348 19.0767 103.808 18.9533C103.268 18.8298 102.807 18.6309 102.426 18.3561C102.045 18.0817 101.747 17.7251 101.532 17.2856C101.317 16.8465 101.21 16.3047 101.21 15.6592C101.21 15.0138 101.332 14.5203 101.574 14.0945C101.816 13.6695 102.146 13.3226 102.561 13.0549C102.977 12.7872 103.458 12.5953 104.005 12.4785C104.552 12.3621 105.124 12.3034 105.719 12.3034C105.996 12.3034 106.287 12.3209 106.592 12.3547C106.897 12.3893 107.222 12.4473 107.569 12.5299V12.1182C107.569 11.8301 107.534 11.5556 107.465 11.2946C107.395 11.034 107.274 10.8042 107.101 10.6049C106.928 10.4059 106.699 10.2516 106.415 10.1416C106.131 10.0319 105.774 9.97687 105.345 9.97687C104.764 9.97687 104.23 10.0181 103.745 10.1003C103.741 10.101 103.735 10.102 103.731 10.1027C103.082 10.2137 102.467 9.7786 102.367 9.13381L102.249 8.37093C102.568 8.26123 103.032 8.15153 103.641 8.04149C104.251 7.93179 104.902 7.87677 105.595 7.87677L105.595 7.87811ZM105.803 17.1625C106.579 17.1625 107.167 17.1212 107.569 17.039V14.2804C107.431 14.2391 107.229 14.1982 106.967 14.1569C106.703 14.1157 106.412 14.0952 106.094 14.0952C105.817 14.0952 105.536 14.1157 105.253 14.1569C104.968 14.1982 104.712 14.2737 104.484 14.3834C104.255 14.4934 104.071 14.6477 103.933 14.8467C103.794 15.0456 103.725 15.2962 103.725 15.5982C103.725 16.1883 103.912 16.5965 104.286 16.823C104.66 17.0494 105.165 17.1628 105.803 17.1628L105.803 17.1625Z" fill="#151E57"/>
<path d="M97.7567 8.91058L94.7827 15.0386C94.6462 15.3195 94.3121 15.3195 94.1756 15.0386L91.1992 8.90992C90.8882 8.26979 90.322 7.87671 89.7107 7.87671H88.1628L93.0816 18.4191C93.1701 18.6092 93.336 18.7264 93.5157 18.7264H95.4091C95.5881 18.7264 95.7537 18.6098 95.8425 18.4207L100.798 7.87671H99.2456C98.6339 7.87671 98.0675 8.26979 97.7567 8.91025V8.91058Z" fill="#151E57"/>
<path d="M22.431 0H5.92523C2.65282 0 0 2.61201 0 5.83408V22.0859C0 25.308 2.65282 27.92 5.92523 27.92H22.431C25.7034 27.92 28.3562 25.308 28.3562 22.0859V5.83408C28.3562 2.61201 25.7034 0 22.431 0Z" fill="#50F35A"/>
<path d="M10.0609 14.8322C10.5891 14.8322 11.0777 15.1167 11.3461 15.5802L13.9154 20.0157C14.0334 20.2188 14.3213 20.2189 14.4389 20.0157L17.0063 15.5812C17.2746 15.1177 17.7633 14.8331 18.2914 14.8331H19.6313L15.3539 22.464C15.2773 22.6007 15.1344 22.6847 14.9799 22.6847H13.3451C13.1906 22.6845 13.0477 22.6 12.9711 22.463L8.725 14.8322H10.0609ZM10.0609 6.10754C10.5891 6.10755 11.0777 6.39207 11.3461 6.85559L13.9145 11.2902C14.0323 11.4936 14.3213 11.4936 14.4389 11.2902L17.0063 6.85559C17.2747 6.39225 17.7634 6.10754 18.2914 6.10754H19.6313L15.3539 13.7394C15.2773 13.8759 15.1343 13.96 14.9799 13.9601H13.3451C13.1904 13.9599 13.0476 13.8747 12.9711 13.7374L8.725 6.10754H10.0609Z" fill="#151E57"/>
</svg>
